<?xml version="1.0" encoding="UTF-8" standalone="no"?>
<svg
   xmlns:dc="http://purl.org/dc/elements/1.1/"
   xmlns:cc="http://creativecommons.org/ns#"
   xmlns:rdf="http://www.w3.org/1999/02/22-rdf-syntax-ns#"
   xmlns:svg="http://www.w3.org/2000/svg"
   xmlns="http://www.w3.org/2000/svg"
   viewBox="0 0 8000 8000"
   height="8000"
   width="8000"
   xml:space="preserve"
   id="svg2"
   version="1.1"><metadata
     id="metadata8"><rdf:RDF><cc:Work
         rdf:about=""><dc:format>image/svg+xml</dc:format><dc:type
           rdf:resource="http://purl.org/dc/dcmitype/StillImage" /></cc:Work></rdf:RDF></metadata><defs
     id="defs6" /><g
     transform="matrix(1.3333333,0,0,-1.3333333,0,8000)"
     id="g10"><g
       transform="scale(0.1)"
       id="g12"><g
         transform="scale(3.68098)"
         id="g14"><path
           id="path16"
           style="fill:#fffffc;fill-opacity:1;fill-rule:evenodd;stroke:none"
           d="M 16300,0 H 0 V 16300 H 16300 V 0" /></g><g
         transform="scale(3.57807)"
         id="g18"><path
           id="path20"
           style="fill:#3896af;fill-opacity:1;fill-rule:nonzero;stroke:none"
           d="m 8384.42,16260.9 c -4316.53,0 -7828.254,-3511.8 -7828.254,-7828.27 0,-4316.52 3511.724,-7828.253 7828.254,-7828.253 4316.48,0 7828.28,3511.733 7828.28,7828.253 0,4316.47 -3511.8,7828.27 -7828.28,7828.27 m 0,-15695.651 c -533.78,0 -1067.23,53.773 -1585.53,159.835 -505.13,103.38 -1002.02,257.597 -1476.83,458.436 -466.17,197.17 -915.8,441.21 -1336.39,725.36 -416.59,281.44 -808.31,604.66 -1164.31,960.66 -356.03,356.03 -679.24,747.75 -960.68,1164.34 -284.14,420.59 -528.2,870.22 -725.37,1336.39 -200.828,474.81 -355.067,971.7 -458.43,1476.83 -106.061,518.3 -159.838,1051.75 -159.838,1585.53 0,533.78 53.777,1067.22 159.838,1585.47 103.363,505.2 257.602,1002.1 458.43,1476.9 197.17,466.2 441.23,915.8 725.37,1336.4 281.44,416.5 604.65,808.3 960.68,1164.3 356,356 747.72,679.2 1164.31,960.7 420.59,284.1 870.22,528.2 1336.39,725.3 474.81,200.9 971.7,355.1 1476.83,458.5 518.3,106 1051.75,159.8 1585.53,159.8 533.78,0 1067.22,-53.8 1585.52,-159.8 505.16,-103.4 1002.06,-257.6 1476.86,-458.5 466.1,-197.1 915.8,-441.2 1336.4,-725.3 416.6,-281.5 808.3,-604.7 1164.3,-960.7 356,-356 679.2,-747.8 960.7,-1164.3 284.1,-420.6 528.2,-870.2 725.3,-1336.4 200.9,-474.8 355.1,-971.7 458.5,-1476.9 106,-518.25 159.8,-1051.69 159.8,-1585.47 0,-533.78 -53.8,-1067.23 -159.8,-1585.53 -103.4,-505.13 -257.6,-1002.02 -458.5,-1476.83 -197.1,-466.17 -441.2,-915.8 -725.3,-1336.39 -281.5,-416.59 -604.7,-808.31 -960.7,-1164.34 -356,-356 -747.7,-679.22 -1164.3,-960.66 -420.6,-284.15 -870.3,-528.19 -1336.4,-725.36 C 10972,982.681 10475.1,828.464 9969.94,725.084 9451.64,619.022 8918.2,565.249 8384.42,565.249" /></g><g
         transform="scale(3.16502)"
         id="g22"><path
           id="path24"
           style="fill:#3896af;fill-opacity:1;fill-rule:nonzero;stroke:none"
           d="M 2701.46,2073.45 H 16255.8 V 15627.8 H 2701.46 V 2073.45 M 16300,2029.21 H 2657.23 V 15672 H 16300 V 2029.21" /></g><g
         transform="scale(1.81904)"
         id="g26"><path
           id="path28"
           style="fill:#5bbac4;fill-opacity:1;fill-rule:nonzero;stroke:none"
           d="m 15483.5,1238.9 c -4.7,0 -9.4,0.05 -14.2,0.16 -208.9,4.84 -596.9,53.38 -758.2,214.68 -221.6,221.65 50.4,521.81 127.9,756.22 65,197.25 189.9,316.21 72.1,538.03 -24,45.14 -103.7,157.23 -63.4,367.78 16.2,84.61 3.2,227.26 -29.6,414.94 h 866.9 c 15.9,-148.81 40,-284.32 76.8,-382.18 105.3,-280.14 2.1,-401.58 39.1,-684.09 32.5,-248.54 303.1,-1225.54 -317.4,-1225.54 m 194,2368.78 H 14804 c -1.4,7.47 -2.8,15.01 -4.3,22.54 0,0 -354.1,1325.81 -399.3,1514.98 -124.3,519.56 -99.9,1398.43 -76.2,1924.26 l 1.6,35.45 c 9.8,219.46 30.8,439.91 51.1,653.1 38.6,404.83 75.1,787.17 44.1,1177.6 -35.1,443.09 -198.1,1215.39 -251.9,1764.29 -0.6,7.2 -1.4,14.6 -2.1,22 107.1,127.9 267.6,320.3 445.6,533.8 254.2,304.8 1243.9,1473.3 1526.5,1853.4 56.1,-6.8 109.9,-12.6 160.9,-16.7 -43.7,-640 -117.4,-1494.4 -137.3,-1776.1 -27.1,-384.6 -50.5,-716.7 -60.7,-845.7 -50.3,-638.42 -49.8,-1866.54 -145,-2414.8 l -8.8,-50.52 c -102.7,-590.42 -186.6,-1100.36 -145.3,-1686.99 22.9,-324.24 12.5,-983.43 2.4,-1296.79 -6.7,-207.52 -129.6,-1391.28 -129.6,-1391.28 0.6,-7.53 1.2,-15.07 1.8,-22.54" /></g><g
         transform="scale(1.7504)"
         id="g30"><path
           id="path32"
           style="fill:#3896af;fill-opacity:1;fill-rule:nonzero;stroke:none"
           d="m 16300,3669.15 h -900.9 c -4.5,25.88 -9.4,52.5 -14.6,79.98 h 907.7 c 2.4,-26.96 4.9,-53.7 7.8,-79.98" /></g><g
         transform="scale(2.09409)"
         id="g34"><path
           id="path36"
           style="fill:#5bbac4;fill-opacity:1;fill-rule:nonzero;stroke:none"
           d="m 15156.5,1076.17 c -538.9,0.09 -304,848.67 -275.7,1064.57 32.1,245.4 -57.6,350.89 33.9,594.24 32,85 52.9,202.71 66.7,331.98 h 753.1 c -28.6,-163.03 -39.8,-286.95 -25.7,-360.44 35,-182.9 -34.3,-280.27 -55.1,-319.47 -102.3,-192.69 6.1,-296.03 62.7,-467.36 67.2,-203.63 303.5,-464.36 111,-656.9 -140.1,-140.11 -477.1,-182.27 -658.6,-186.48 -4.2,-0.09 -8.2,-0.14 -12.3,-0.14 m 590.2,2057.65 h -758.8 c 0.6,6.49 1.1,13.03 1.7,19.58 0,0 -106.8,1028.27 -112.7,1208.54 -8.7,272.19 -17.8,844.8 2.1,1126.45 35.9,509.58 -37,952.54 -126.2,1465.41 l -7.6,43.88 c -82.7,476.25 -82.4,1543.06 -126,2097.62 -8.8,112.03 -29.2,400.56 -52.8,734.64 -17.3,244.86 -75,987.96 -108.9,1543.96 41,3.6 84.1,8.3 128.9,13.8 245,-329.8 1105.4,-1345.5 1326.3,-1610.43 154.8,-185.62 294.3,-352.95 387.3,-463.93 -0.6,-6.39 -1.2,-12.7 -1.8,-18.81 -46.7,-476.82 -188.3,-1147.71 -218.8,-1532.6 -27,-339.14 4.7,-671.27 38.3,-1022.92 17.6,-185.19 35.9,-376.68 44.4,-567.31 l 1.4,-30.8 c 20.6,-456.77 41.8,-1220.2 -66.2,-1671.52 -39.3,-164.32 -346.8,-1315.98 -346.8,-1315.98 -1.3,-6.55 -2.6,-13.09 -3.8,-19.58" /></g><g
         transform="scale(2.02301)"
         id="g38"><path
           id="path40"
           style="fill:#3896af;fill-opacity:1;fill-rule:nonzero;stroke:none"
           d="m 16287.3,3174.73 h -779.4 c 2.4,22.74 4.6,45.87 6.6,69.2 h 785.5 c -4.5,-23.77 -8.7,-46.81 -12.7,-69.2" /></g><g
         transform="scale(2.82493)"
         id="g42"><path
           id="path44"
           style="fill:#5bbac4;fill-opacity:1;fill-rule:nonzero;stroke:none"
           d="m 15839.5,2190.85 c 44.1,27.19 88.1,54.76 131.9,82.66 h 17.4 c -12.8,-10.48 -25,-20.08 -36.4,-28.64 -39.1,-29.6 -76.7,-46.83 -112.9,-54.02 m -95.9,3.86 c -46.3,12.99 -89.6,41.27 -129.6,78.8 h 257.4 c -42.5,-26.62 -84.9,-52.82 -127.8,-78.8 m 206.1,128.35 h -382.4 c -121.9,143.69 -207.8,359.84 -249.4,437.04 -87.1,161.53 -186.7,186.06 -237.2,372.08 -21.5,79.22 -73.9,180.54 -136.4,284.08 0,0 -509.9,572.05 -591.5,677.93 -123.3,159.86 -376.9,500.29 -487.1,678.28 -199.2,321.99 -435.1,556.79 -711,826.53 l -23.7,23.12 c -256.1,250.52 -718.3,892.19 -984.9,1206.79 -15,17.66 -36.5,43.22 -63.1,74.97 34.1,349.18 122.2,1291.85 93.8,2011.52 -1.1,27.72 -1.8,56.81 -2.4,86.97 6.3,78.24 5.8,177.39 1.6,272.44 324,-619.17 755.8,-1361.98 893.4,-1598.34 178.6,-306.98 384.2,-771.77 532.7,-1016.49 130.8,-215.61 293.8,-401.6 466.4,-598.53 90.9,-103.72 184.9,-210.94 272.7,-321.88 l 14.2,-17.91 c 210.3,-265.78 554,-715.7 684.7,-1033.9 47.6,-115.86 361.8,-941.69 361.8,-941.69 65.2,-141.17 121.5,-242.23 168.6,-286.8 100.4,-94.8 100.9,-183.4 105.4,-216.01 22,-160.21 132,-175.36 240.3,-253.88 128.7,-93.31 383.8,-147.68 351.5,-346.91 -8.3,-51.33 -36.9,-105.99 -75,-158.8 -80.1,-54.66 -161.2,-108.25 -243,-160.61" /></g><g
         transform="scale(2.80634)"
         id="g46"><path
           id="path48"
           style="fill:#3896af;fill-opacity:1;fill-rule:nonzero;stroke:none"
           d="m 15904.2,2201.33 c -19.3,0.04 -38,2.78 -56.3,7.92 43.2,26.15 85.9,52.52 128.7,79.32 h 100.5 c -44,-28.08 -88.3,-55.84 -132.7,-83.21 -13.6,-2.71 -27,-4.03 -40.2,-4.03 m 248.2,137.12 h -97.1 c 82.4,52.7 164,106.65 244.7,161.67 -42.2,-58.47 -96.2,-114.67 -147.6,-161.67" /></g><g
         transform="scale(2.78093)"
         id="g50"><path
           id="path52"
           style="fill:#3896af;fill-opacity:1;fill-rule:nonzero;stroke:none"
           d="m 16241.8,2309.48 h -17.7 -101.5 -261.5 c -16.3,15.39 -32.2,32.29 -47.5,50.35 h 388.4 98 c -20.1,-18.31 -39.7,-35.21 -58.2,-50.35" /></g><g
         transform="scale(1.61202)"
         id="g54"><path
           id="path56"
           style="fill:#5bbac4;fill-opacity:1;fill-rule:nonzero;stroke:none"
           d="m 9473.12,3832.26 c -84.43,0.06 -173.88,30.46 -267.99,101.68 -19.85,15.01 -41.25,31.82 -63.64,50.18 h 90.38 c 80.33,-51.24 161.22,-101.92 242.43,-151.8 -0.38,-0.06 -0.81,-0.06 -1.18,-0.06 m 136.6,26.68 c -68.12,41.43 -135.24,82.87 -202.73,125.18 h 391.19 c -58.87,-55.27 -121.78,-99.07 -188.46,-125.18 m 270.47,212.03 H 9269.9 c -181.02,115.88 -359.61,234.86 -536.04,357.13 -41,68.3 -70.47,136.97 -81.14,202.6 -56.63,349.12 390.44,444.41 616,607.93 189.76,137.59 382.56,164.14 421.08,444.91 7.82,57.13 8.81,212.4 184.62,378.53 82.62,78.1 181.18,255.2 295.48,502.6 0,0 550.7,1447.18 634.1,1650.22 229,557.62 831.3,1346.07 1199.9,1811.81 l 24.8,31.4 c 153.8,194.4 318.6,382.3 477.9,564.1 302.4,345.1 588.1,671 817.3,1048.8 260.2,428.9 620.6,1243.4 933.6,1781.3 244.5,420.2 1019.6,1753.6 1589.9,2847.7 -11.2,-196.4 -14,-408.8 1.1,-563.1 -0.7,-39.1 -1.7,-77 -3.1,-113.4 -49.9,-1260.9 81.8,-2912.4 140.9,-3524.7 -46.7,-55.8 -84.5,-100.7 -110.9,-131.7 -467.1,-551.3 -1277.1,-1675.8 -1726,-2114.83 l -41.4,-40.51 c -483.6,-472.7 -896.8,-884.17 -1246.1,-1448.43 -193,-311.9 -637.5,-908.48 -853.5,-1188.62 -143,-185.55 -1036.6,-1188.02 -1036.6,-1188.02 -109.5,-181.44 -201.4,-358.98 -239,-497.82 -88.4,-325.98 -263,-368.97 -415.6,-652.03 -72.9,-135.3 -223.6,-514.08 -437.01,-765.87 m -783.18,0 h -55.96 c -38.4,35.05 -77.66,73.13 -115.69,113.15 56.95,-38.03 114.27,-75.81 171.65,-113.15" /></g><path
         id="path58"
         style="fill:#3896af;fill-opacity:1;fill-rule:nonzero;stroke:none"
         d="m 15272.8,6177.8 c -130.9,80.4 -261.3,162.1 -390.8,244.7 h 282.3 c 108.8,-68.2 217,-135 326.8,-201.8 -70.2,-27.4 -143,-42.7 -218.3,-42.9 m -329.5,384.7 h -278.7 c -92.5,60.2 -184.9,121.1 -276.7,182.4 -116.9,123 -227,257.6 -308.7,393.3 284.4,-197.1 572.3,-388.9 864.1,-575.7" /><path
         id="path60"
         style="fill:#3896af;fill-opacity:1;fill-rule:nonzero;stroke:none"
         d="m 15794.9,6422.5 h -1058.6 c -51.4,42.1 -106.1,89.1 -161.9,140 h 90.2 278.7 983.8 c -42.6,-50.2 -86.6,-97.2 -132.2,-140" /><g
         transform="scale(3.1556)"
         id="g62"><path
           id="path64"
           style="fill:#5bbac4;fill-opacity:1;fill-rule:nonzero;stroke:none"
           d="m 11063.3,11656.3 c 52.8,203.6 102,422.6 138.9,613.8 199.4,190.1 365.8,367 518,474 62,43.6 150.4,108.7 243.4,177.9 v 0 0 c 89.7,-12.9 193.2,-31.2 300.1,-50 195.4,-34.4 411,-95.8 521.3,-95.8 2.8,0 5.6,0 8.3,0.1 52.6,1.6 116.9,2.4 187.3,2.4 221.3,0 502.6,-7.8 665.9,-22.7 226.7,-20.7 1244.3,-317.2 1244.3,-317.2 21.3,-3.4 42.7,-7.1 63.9,-11.4 115.1,-23.4 186.2,-47.2 303.5,-53.8 86.3,-4.9 176.8,-21.7 264,-21.7 13.4,0 26.8,0.4 40,1.3 5,0.3 9.9,0.5 14.8,0.5 95.8,0 184.2,-62.1 272.5,-98 88.2,-36 156.4,-57.3 234.7,-122 56.4,-46.7 215.8,-135.6 184.6,-232.6 -5.2,-16.6 -21.7,-22.9 -44.2,-22.9 -68.4,0 -193.1,58.8 -231.6,69.4 -75.3,20.7 -235.6,59.2 -346.5,59.2 -28.4,0 -53.6,-2.5 -73.2,-8.5 -12.3,-3.7 -29.2,-54 -1.8,-68.8 50.2,-27.2 108.2,-54.2 158.8,-76 109.5,-47.4 66.9,-122.7 19.4,-139 -9.9,-3.4 -21,-4.8 -32.8,-4.8 -36.1,0 -77.6,12.9 -104.1,19 -68.8,15.6 -134.4,45.6 -203.9,57 -71.1,11.7 -140.8,24.6 -205.9,61.5 -56.1,31.8 -106,59.6 -156.2,102.3 -56.2,48 -157.8,47.4 -224.7,56.7 -0.1,0 -0.2,0 -0.5,0 -28.5,0 -1105.3,-78.7 -1206.7,-82 -0.8,0 -1.8,0 -3,0 -49.5,0 -398,22.3 -445.9,34.1 -108.8,27 -274.4,49.6 -376.1,49.6 -18,0 -33.9,-0.7 -47.2,-2.2 -9.8,-1.1 -26.7,-1.6 -48.8,-1.6 -119.6,0 -389.9,14.7 -490.6,27.8 -10.4,1.4 -48.4,3.5 -104.8,3.5 -251.7,0 -869.9,-41.9 -1035.2,-379.1" /></g><g
         transform="scale(3.05174)"
         id="g66"><path
           id="path68"
           style="fill:#5bbac4;fill-opacity:1;fill-rule:nonzero;stroke:none"
           d="m 12370.7,13361.8 v 0 0 c -76.6,11 -143.4,18.3 -194,19 l -13.5,0.2 c -3,0 -6,0.1 -9.1,0.1 -37.6,0 -76.3,-3.1 -115.2,-6.2 -38.9,-3 -77.9,-6.1 -115.9,-6.1 -24.2,0 -48,1.3 -71.2,4.5 -57.1,8.1 -114.2,23.4 -174.8,39.7 -47.5,12.7 -96.8,25.9 -147.1,35.7 -90.3,17.4 -193.8,35.5 -300.5,35.5 -14.1,0 -28.3,-0.4 -42.5,-1 -39.8,-1.9 -78.6,-9.9 -115.8,-22.1 -7.1,2.6 -14.2,5.2 -21.2,7.9 -100.9,38.1 -201.5,76.8 -301.9,116.3 -20.7,9.5 -41.3,18.8 -61.6,28.2 40.8,-2.8 90.6,-9.6 143.7,-9.6 75.3,0 157,13.7 228.2,71.9 94.1,77.1 201.6,132.4 295.3,177.8 46.2,22.4 93.5,41.2 139.3,59.5 58.1,23.3 113.1,45.2 163.7,73 87.5,48 162.5,132.8 244.7,192.6 l 10.9,7.9 c 90.6,65.8 263.4,153 446.3,245.4 187.8,94.8 410.9,179.4 497.9,248.8 176.2,140.4 528.7,394.5 719,511.5 200.6,123.3 1226.8,507.8 1226.8,507.8 19.9,10.4 39.8,20.6 60.1,30.2 109.7,51.9 183.4,76.2 284.6,143.4 85.9,56.9 186.3,104.3 264.4,171.4 79.7,68.5 198,70.9 298.2,97.1 86.8,22.6 152.3,45 242.6,45 8.8,0 18,-0.2 27.4,-0.7 6.2,-0.3 13.2,-0.4 20.8,-0.4 9.7,0 20.3,0.2 31.6,0.4 11.3,0.2 23.3,0.3 35.7,0.3 83.6,0 184.6,-8 208.8,-78.6 23.6,-68.5 -206.2,-112.3 -257.3,-132.3 -94.4,-37 -317.2,-133.7 -378.9,-217.9 -7.5,-10.2 7.9,-58.3 37.2,-58.3 1.3,0 2.6,0.1 4,0.2 58.3,8.6 123.1,22.2 178.5,35.4 16.1,3.9 30.3,5.6 42.7,5.6 79.6,0 84.7,-71.5 59.4,-108.6 -24.8,-36.5 -88.1,-58 -122.1,-73.1 -66.6,-29.6 -139.5,-45.4 -204.1,-79 -66.1,-34.4 -131.9,-66.9 -208.6,-76.6 -53.3,-6.8 -101.6,-13.2 -153.9,-13.2 -12.7,0 -25.6,0.3 -38.9,1.2 -2.8,0.2 -5.6,0.3 -8.4,0.3 -74,0 -153.9,-60 -212.7,-92.5 -9.2,-5.1 -866.3,-749.4 -948.9,-815.4 -28.6,-22.9 -344.7,-229.5 -392.9,-249.8 -125.6,-53 -312.5,-159.6 -379.8,-222.9 -47.6,-44.8 -354.6,-251.4 -462.9,-312.3 -35.6,-20 -257.1,-187.7 -458.1,-337.2" /></g><g
         transform="scale(2.50164)"
         id="g70"><path
           id="path72"
           style="fill:#5bbac4;fill-opacity:1;fill-rule:nonzero;stroke:none"
           d="m 10000.8,14651.3 c -3.31,6.3 -6.59,13.4 -9.83,21.2 -185.2,453.7 -994.7,509.1 -1319.77,509.1 -71.16,0 -119.12,-2.7 -132.24,-4.4 -126.91,-16.5 -468.01,-35.1 -618.79,-35.1 -27.86,0 -49.25,0.7 -61.56,2 -16.79,1.9 -36.89,2.8 -59.52,2.8 -128.36,0 -337.22,-28.5 -474.41,-62.5 -60.48,-15 -500.15,-43.1 -562.43,-43.1 -1.52,0 -2.84,0 -3.88,0.1 -127.91,4.1 -1486.34,103.4 -1522.12,103.4 -0.32,0 -0.52,0 -0.64,-0.1 -84.34,-11.6 -212.5,-10.9 -283.41,-71.4 -63.28,-54 -126.36,-89 -197.04,-129.1 -82.14,-46.6 -170.08,-62.9 -259.79,-77.6 -87.66,-14.4 -170.36,-52.2 -257.15,-71.9 -33.41,-7.6 -85.78,-23.9 -131.35,-23.9 -14.79,0 -28.86,1.7 -41.33,6 -59.89,20.6 -113.7,115.6 24.5,175.3 63.8,27.6 136.99,61.6 200.27,95.9 34.5,18.7 13.19,82.1 -2.24,86.8 -24.78,7.6 -56.52,10.8 -92.34,10.8 -139.91,0 -342.08,-48.7 -437.02,-74.8 -48.59,-13.3 -205.89,-87.5 -292.26,-87.5 -21.56,0 -38.69,4.6 -48.62,16 v 96.5 c 40.55,88.3 171.23,164.7 225.7,209.7 98.81,81.7 184.9,108.6 296.17,153.9 111.25,45.4 222.85,123.7 343.69,123.7 6.16,0 12.4,-0.2 18.63,-0.6 16.71,-1.2 33.54,-1.7 50.49,-1.7 110.01,0 224.17,21.2 332.98,27.4 147.94,8.4 237.72,38.3 382.87,67.8 26.74,5.4 53.64,10.1 80.63,14.4 0,0 1283.55,374.1 1569.57,400.2 205.94,18.7 560.75,28.6 840.01,28.6 88.74,0 169.89,-1 236.16,-3 3.44,-0.1 6.92,-0.2 10.52,-0.2 139.18,0 411.13,77.5 657.6,120.9 134.76,23.8 265.43,46.8 378.52,63.1 v 0 0 c 117.28,-87.3 228.85,-169.5 307,-224.4 188.23,-132.3 422.24,-378.4 666.16,-611.8 49.49,-254.4 115.76,-546.1 186.27,-812.5" /></g><g
         transform="scale(2.31683)"
         id="g74"><path
           id="path76"
           style="fill:#3896af;fill-opacity:1;fill-rule:nonzero;stroke:none"
           d="m 3690.47,16195.7 c -3.39,3.9 -6.01,8.5 -7.74,13.9 -9.93,30.9 -5.64,61.3 7.74,90.4 v -104.3" /></g><g
         transform="scale(3.03063)"
         id="g78"><path
           id="path80"
           style="fill:#5bbac4;fill-opacity:1;fill-rule:nonzero;stroke:none"
           d="m 7298.13,13454.9 c -202.37,150.5 -425.46,319.4 -461.22,339.5 -109.13,61.4 -418.24,269.5 -466.11,314.5 -67.81,63.8 -256.06,171.1 -382.5,224.5 -48.5,20.4 -366.89,228.5 -395.63,251.5 -83.25,66.5 -946.24,815.9 -955.51,821.1 -59.26,32.7 -139.71,93.1 -214.18,93.1 -2.84,0 -5.67,-0.1 -8.51,-0.3 -13.37,-0.8 -26.37,-1.2 -39.17,-1.2 -52.66,0 -101.3,6.5 -154.88,13.3 -77.32,9.8 -143.51,42.6 -210.13,77.1 -65.03,33.9 -138.38,49.8 -205.5,79.6 -34.25,15.3 -97.96,36.9 -122.98,73.6 -25.47,37.4 -20.36,109.4 59.83,109.4 12.47,0 26.76,-1.8 42.99,-5.7 55.83,-13.3 121.03,-26.9 179.8,-35.6 1.35,-0.2 2.71,-0.3 4.02,-0.3 29.47,0 44.98,48.6 37.46,58.8 -62.17,84.7 -286.55,182.2 -381.61,219.4 -51.44,20.2 -282.85,64.3 -259.09,133.3 24.45,71 126.05,79.1 210.32,79.1 12.44,0 24.55,-0.2 35.94,-0.3 11.41,-0.2 22.14,-0.4 31.84,-0.4 7.62,0 14.65,0.1 20.88,0.4 9.51,0.5 18.68,0.7 27.66,0.7 90.83,0 156.83,-22.6 244.2,-45.4 100.9,-26.3 220.02,-28.7 300.37,-97.7 78.56,-67.6 179.66,-115.3 266.18,-172.6 101.96,-67.6 176.14,-92.2 286.61,-144.4 20.39,-9.7 40.49,-19.9 60.45,-30.4 0,0 1033.41,-387.2 1235.35,-511.4 191.65,-117.8 546.59,-373.6 724.11,-515 87.61,-69.9 312.18,-155 501.32,-250.5 184.22,-93 358.21,-180.9 449.38,-247.1 l 10.99,-8 c 82.85,-60.2 158.31,-145.6 246.48,-194 50.91,-27.9 106.25,-50 164.81,-73.4 46.07,-18.4 93.75,-37.4 140.21,-60 94.37,-45.7 202.63,-101.4 297.43,-179 71.67,-58.7 153.93,-72.4 229.79,-72.4 57.64,0 111.59,7.9 154.32,10.3 -20.92,-9.7 -42.1,-19.3 -63.39,-29.1 -101.07,-39.7 -202.4,-78.7 -303.96,-117.1 -8.41,-3.1 -16.83,-6.2 -25.24,-9.4 -38.87,13.1 -79.39,21.7 -121.03,23.7 -14.32,0.7 -28.61,1 -42.87,1 -107.37,0 -211.64,-18.2 -302.54,-35.7 -50.68,-9.8 -100.24,-23.1 -148.19,-36 -60.91,-16.3 -118.45,-31.8 -175.97,-39.9 -23.33,-3.3 -47.28,-4.5 -71.67,-4.5 -38.3,0 -77.57,3.1 -116.7,6.1 -39.17,3.1 -78.21,6.2 -116.09,6.2 -3.03,0 -6.07,0 -9.07,-0.1 l -13.59,-0.2 c -51.02,-0.6 -118.26,-8 -195.41,-19.1 v 0 0" /></g><g
         transform="scale(3.02276)"
         id="g82"><path
           id="path84"
           style="fill:#3896af;fill-opacity:1;fill-rule:nonzero;stroke:none"
           d="m 12293.4,13509.1 -13.6,0.2 c -102.7,1.4 -214.5,-21.8 -314.3,-7.7 -57.7,8.1 -115.4,23.6 -176.5,40 -48,12.8 -97.7,26.2 -148.6,36 -103.2,19.9 -223.6,40.7 -346.3,34.9 -40.1,-2 -79.3,-10 -116.9,-22.4 -7.1,2.7 -14.3,5.4 -21.4,8 -101.8,38.5 -203.4,77.6 -304.7,117.4 -20.9,9.6 -41.7,19 -62.3,28.6 -145.6,67.5 -278,140.4 -328.9,308 -14.7,48.5 -20.1,181 -18.5,229.3 5.9,139.9 9.8,116 76.1,252.3 11.8,22.1 86,12.7 97.7,33.9 38.3,69.8 276.3,580.6 101.9,581.7 -6.2,0.1 -12.8,-0.3 -20,-1.4 -1,0 -1.9,-0.1 -2.9,-0.1 23.1,110.9 44.5,285.8 46.6,402.5 3.7,131.7 -16.7,261.4 -88.8,368.8 -12.5,19.7 -26.4,39 -42.1,57.6 -18,21.5 -36.6,41.8 -55.5,61.1 -39.6,40.8 -82.1,76.8 -127.1,108 -143.7,100.8 -309.7,151.4 -499.09,154 -6.29,0.1 -12.57,0.2 -18.89,0.2 -0.33,0 -0.63,0 -0.96,0 -0.33,0 -0.63,0 -0.96,0 -0.33,0 -0.66,0 -0.96,0 -0.33,0 -0.63,0 -0.96,0 -6.32,0 -12.6,-0.1 -18.89,-0.2 -189.39,-2.6 -355.43,-53.2 -499.08,-154 -44.99,-31.2 -87.44,-67.2 -127.04,-108 -19.02,-19.3 -37.54,-39.6 -55.61,-61.1 -15.64,-18.6 -29.6,-37.9 -42.04,-57.6 -72.12,-107.4 -92.53,-237.1 -88.86,-368.9 2.18,-116.7 23.52,-291.5 46.64,-402.4 -0.96,0 -1.95,0.1 -2.91,0.1 -7.21,1.1 -13.83,1.5 -19.98,1.4 -174.41,-1.1 63.59,-511.9 101.86,-581.7 11.71,-21.2 85.85,-11.8 97.69,-33.9 66.33,-136.3 70.24,-112.3 76.09,-252.3 1.62,-48.3 -3.77,-180.8 -18.49,-229.3 -50.75,-167.1 -182.42,-240.1 -327.58,-307.4 -20.98,-9.8 -42.22,-19.4 -63.55,-29.2 -101.34,-39.8 -202.93,-78.9 -304.76,-117.4 -8.43,-3.1 -16.87,-6.3 -25.31,-9.4 -38.97,13.1 -79.59,21.7 -121.34,23.8 -122.67,5.8 -243.09,-15 -346.31,-34.9 -50.81,-9.8 -100.5,-23.2 -148.57,-36 -61.07,-16.4 -118.77,-31.9 -176.43,-40 -99.87,-14.1 -211.69,9.1 -314.35,7.7 l -13.63,-0.2 c -51.11,-0.7 -118.56,-8.1 -195.91,-19.2 97.06,-72.3 189.4,-140.3 254.07,-185.7 155.79,-109.5 349.45,-313.2 551.32,-506.4 40.96,-210.5 95.81,-451.9 154.16,-672.4 60.81,-229.8 125.42,-436.7 182.06,-562 78.33,-273.4 113.1,-553.7 133.35,-836.6 5.23,-227.4 33.15,-452.6 22.43,-680.5 -3.28,-39.1 -7.61,-78.13 -13.04,-117.73 -55.11,-310.31 -76.84,-614.27 -116.21,-926.7 -2.35,-18.59 -4.73,-37.22 -7.21,-55.88 -3.61,-17.1 -7.35,-41.35 -10.92,-70.53 -5.89,-57.26 -9.17,-115.72 -11.08,-173.75 -3.58,-108.37 -2.32,-215.1 -4.11,-309.32 -0.39,-20.8 -0.92,-41.02 -1.68,-60.47 -26.57,-672.43 43.63,-1553.15 75.16,-1879.67 64.44,76.91 161.01,192.74 268.13,321.19 152.97,183.45 748.59,886.61 918.63,1115.34 33.78,-4.1 66.17,-7.57 96.83,-10.05 35.24,-2.88 68.19,-4.44 98.39,-4.21 33.02,-0.26 69.37,1.66 108.4,5.03 28.4,2.48 58.3,5.76 89.3,9.53 169.7,-228.43 765.8,-932.13 918.8,-1115.64 107.2,-128.59 203.9,-244.51 268.3,-321.39 31.9,326.32 114.3,1207.31 87.7,1879.87 -1.1,25.9 -1.7,53.1 -2.3,81.28 -1.5,83.01 -1.8,174.78 -5.6,268.27 2.4,-4.57 4.8,-9.1 7.1,-13.67 -5.1,117.41 -16.3,228.17 -26.8,278.19 -44.1,332.12 -80.6,653.78 -139,982.58 -5.4,39.6 -9.8,78.63 -13,117.73 -10.7,227.9 17.2,453.1 22.4,680.5 20.3,282.9 55,563.2 133.3,836.6 60.2,133.1 129.4,358.3 193.4,605.1 55.2,212.6 106.5,441.2 145.1,640.8 208.2,198.5 381.9,383.2 540.7,494.9 64.7,45.4 157,113.4 254.1,185.7 -77.3,11.1 -144.8,18.5 -195.9,19.2" /></g></g></g></svg>